<?xml version="1.0" encoding="UTF-8" standalone="no"?>
<svg
   xmlns:dc="http://purl.org/dc/elements/1.1/"
   xmlns:cc="http://creativecommons.org/ns#"
   xmlns:rdf="http://www.w3.org/1999/02/22-rdf-syntax-ns#"
   xmlns:svg="http://www.w3.org/2000/svg"
   xmlns="http://www.w3.org/2000/svg"
   xmlns:sodipodi="http://sodipodi.sourceforge.net/DTD/sodipodi-0.dtd"
   xmlns:inkscape="http://www.inkscape.org/namespaces/inkscape"
   width="640"
   height="242"
   viewBox="0 0 169.33333 64.029168"
   version="1.1"
   id="svg986"
   inkscape:version="1.0.2-2 (e86c870879, 2021-01-15)"
   sodipodi:docname="FEC-blue-640.svg">
  <defs
     id="defs980" />
  <sodipodi:namedview
     id="base"
     pagecolor="#ffffff"
     bordercolor="#666666"
     borderopacity="1.0"
     inkscape:pageopacity="0.0"
     inkscape:pageshadow="2"
     inkscape:zoom="0.35"
     inkscape:cx="400"
     inkscape:cy="560"
     inkscape:document-units="mm"
     inkscape:current-layer="layer1"
     inkscape:document-rotation="0"
     showgrid="false"
     units="px"
     inkscape:window-width="1267"
     inkscape:window-height="1040"
     inkscape:window-x="182"
     inkscape:window-y="1080"
     inkscape:window-maximized="0" />
  <metadata
     id="metadata983">
    <rdf:RDF>
      <cc:Work
         rdf:about="">
        <dc:format>image/svg+xml</dc:format>
        <dc:type
           rdf:resource="http://purl.org/dc/dcmitype/StillImage" />
        <dc:title></dc:title>
      </cc:Work>
    </rdf:RDF>
  </metadata>
  <g
     inkscape:label="Layer 1"
     inkscape:groupmode="layer"
     id="layer1">
    <path
       d="M 103.89891,51.418933 V 62.904794 H 56.011849 V 1.0618034 H 102.75145 V 12.547665 H 70.239601 V 25.976173 H 98.948612 V 37.109725 H 70.239601 v 14.309208 z"
       style="fill:#ffffff;fill-opacity:1;fill-rule:nonzero;stroke:none;stroke-width:1.01816"
       id="path254" />
    <path
       d="m 126.70405,59.856532 c -5.09487,-2.73682 -9.09725,-6.53556 -12.01428,-11.395237 -2.91397,-4.860687 -4.37299,-10.352626 -4.37299,-16.477866 0,-6.12527 1.45902,-11.617209 4.37299,-16.477896 2.91703,-4.858667 6.91941,-8.6574062 12.01428,-11.395237 C 131.79892,1.3734754 137.52604,0 143.88956,0 c 5.35754,0 10.20397,0.94485782 14.53115,2.8274159 4.33126,1.8886766 7.96711,4.5990315 10.91262,8.1310071 l -9.18784,8.482305 C 155.9588,14.611586 150.77841,12.1955 144.59513,12.1955 c -3.83031,0 -7.24523,0.840987 -10.24878,2.51586 -3.00356,1.680991 -5.34331,4.0197 -7.02427,7.024295 -1.67998,3.003556 -2.51485,6.421529 -2.51485,10.247774 0,3.830313 0.83487,7.245199 2.51485,10.247744 1.68096,3.004595 4.02071,5.343304 7.02427,7.024296 3.00355,1.679952 6.41847,2.516869 10.24878,2.516869 6.18328,0 11.36367,-2.439492 15.55036,-7.331754 l 9.18784,8.482277 c -2.94551,3.591054 -6.59969,6.332954 -10.95842,8.216552 -4.35772,1.882586 -9.21841,2.827415 -14.57496,2.827415 -6.30545,0 -12.00103,-1.369406 -17.0959,-4.110296"
       style="fill:#ffffff;fill-opacity:1;fill-rule:nonzero;stroke:none;stroke-width:1.01816"
       id="path258" />
    <path
       d="M 23.321234,37.458051 H 42.936065 V 25.976288 H 16.287793 Z"
       style="fill:#e30613;fill-opacity:1;fill-rule:nonzero;stroke:none;stroke-width:1.01816"
       id="path262" />
    <path
       d="M 0,1.0618322 V 62.904794 H 14.313277 V 12.547693 H 46.739598 V 1.0618322 Z"
       style="fill:#ffffff;fill-opacity:1;fill-rule:nonzero;stroke:none;stroke-width:1.01816"
       id="path266" />
  </g>
</svg>
