<?xml version="1.0" encoding="utf-8"?>
<svg viewBox="395.298 188.239 221.75 123.522" xmlns="http://www.w3.org/2000/svg">
  <path d="m 0,0 v -1.61 h -4.271 v -2.718 h 3.423 V -5.88 h -3.423 v -4.27 H -6.297 V 0 Z" style="fill:#ffffff;fill-opacity:1;fill-rule:nonzero;stroke:none" id="path152" transform="matrix(1.333333, 0, 0, -1.333333, 403.693268, 284.969452)"/>
  <path d="m 0,0 c -0.451,-0.269 -0.803,-0.654 -1.057,-1.157 -0.254,-0.504 -0.38,-1.09 -0.38,-1.761 0,-0.672 0.126,-1.259 0.38,-1.762 0.254,-0.503 0.606,-0.888 1.057,-1.158 0.45,-0.267 0.973,-0.401 1.567,-0.401 0.594,0 1.117,0.134 1.567,0.401 0.451,0.27 0.803,0.655 1.057,1.158 0.254,0.503 0.381,1.09 0.381,1.762 0,0.671 -0.127,1.257 -0.381,1.761 C 3.937,-0.654 3.585,-0.269 3.134,0 2.684,0.269 2.161,0.403 1.567,0.403 0.973,0.403 0.45,0.269 0,0 M 4.148,1.61 C 4.919,1.17 5.528,0.554 5.974,-0.237 6.419,-1.028 6.643,-1.921 6.643,-2.918 6.643,-3.915 6.419,-4.812 5.974,-5.607 5.528,-6.402 4.919,-7.021 4.148,-7.462 3.376,-7.902 2.516,-8.123 1.567,-8.123 c -0.949,0 -1.809,0.221 -2.581,0.661 -0.771,0.441 -1.38,1.06 -1.825,1.855 -0.446,0.795 -0.669,1.692 -0.669,2.689 0,0.997 0.223,1.89 0.669,2.681 0.445,0.791 1.054,1.407 1.825,1.847 0.772,0.441 1.632,0.661 2.581,0.661 0.949,0 1.809,-0.22 2.581,-0.661" style="fill:#ffffff;fill-opacity:1;fill-rule:nonzero;stroke:none" id="path156" transform="matrix(1.333333, 0, 0, -1.333333, 409.311676, 287.806671)"/>
  <path d="m 0,0 h 1.668 c 1.16,0 1.74,0.513 1.74,1.538 0,0.489 -0.142,0.87 -0.425,1.144 C 2.701,2.954 2.262,3.091 1.668,3.091 H 0 Z M 3.264,-5.349 0.892,-1.395 H 0 V -5.349 H -2.027 V 4.802 H 1.841 C 3.02,4.802 3.918,4.515 4.537,3.938 5.154,3.364 5.464,2.607 5.464,1.668 5.464,0.9 5.25,0.259 4.824,-0.26 4.397,-0.776 3.782,-1.121 2.977,-1.294 l 2.53,-4.055 z" style="fill:#ffffff;fill-opacity:1;fill-rule:nonzero;stroke:none" id="path160" transform="matrix(1.333333, 0, 0, -1.333333, 423.053925, 291.371857)"/>
  <path d="M 0,0 V -2.631 H 3.595 V -4.183 H 0 V -6.916 H 4.026 V -8.54 H -2.027 V 1.61 H 4.026 V 0 Z" style="fill:#ffffff;fill-opacity:1;fill-rule:nonzero;stroke:none" id="path164" transform="matrix(1.333333, 0, 0, -1.333333, 435.148346, 287.116669)"/>
  <path d="M 0,0 H -2.027 L -6.571,6.901 V 0 h -2.027 v 10.15 h 2.027 L -2.027,3.191 V 10.15 H 0 Z" style="fill:#ffffff;fill-opacity:1;fill-rule:nonzero;stroke:none" id="path168" transform="matrix(1.333333, 0, 0, -1.333333, 454.312347, 298.503326)"/>
  <path d="m 0,0 c -0.259,-0.437 -0.642,-0.786 -1.15,-1.05 -0.508,-0.263 -1.126,-0.395 -1.855,-0.395 -0.719,0 -1.361,0.122 -1.926,0.366 -0.566,0.245 -1.019,0.598 -1.359,1.058 -0.34,0.459 -0.535,0.997 -0.582,1.61 h 2.156 c 0.049,-0.413 0.214,-0.755 0.497,-1.028 0.282,-0.274 0.658,-0.41 1.128,-0.41 0.422,0 0.745,0.113 0.971,0.337 0.225,0.226 0.337,0.515 0.337,0.87 0,0.316 -0.091,0.578 -0.272,0.784 -0.183,0.206 -0.413,0.372 -0.691,0.496 -0.278,0.125 -0.661,0.268 -1.15,0.431 C -4.529,3.28 -5.046,3.488 -5.449,3.695 -5.851,3.901 -6.194,4.2 -6.477,4.594 -6.76,4.986 -6.9,5.499 -6.9,6.132 c 0,0.872 0.313,1.559 0.941,2.062 0.627,0.504 1.459,0.755 2.494,0.755 1.073,0 1.929,-0.259 2.567,-0.776 0.637,-0.518 0.999,-1.207 1.085,-2.07 h -2.185 c -0.057,0.365 -0.211,0.664 -0.46,0.898 -0.25,0.235 -0.589,0.353 -1.021,0.353 -0.374,0 -0.675,-0.098 -0.906,-0.294 -0.23,-0.198 -0.344,-0.483 -0.344,-0.856 0,-0.297 0.088,-0.545 0.265,-0.741 0.177,-0.196 0.402,-0.357 0.675,-0.482 0.274,-0.124 0.645,-0.263 1.115,-0.417 0.652,-0.23 1.181,-0.446 1.589,-0.647 0.407,-0.2 0.754,-0.503 1.043,-0.904 C 0.245,2.609 0.388,2.082 0.388,1.43 0.388,0.913 0.259,0.437 0,0" style="fill:#ffffff;fill-opacity:1;fill-rule:nonzero;stroke:none" id="path172" transform="matrix(1.333333, 0, 0, -1.333333, 465.81366, 296.710419)"/>
  <path d="m 128.753,114.813 h -2.027 v 10.15 h 2.027 z" style="fill:#ffffff;fill-opacity:1;fill-rule:nonzero;stroke:none" id="path174" transform="matrix(1.333333, 0, 0, -1.333333, 299.591034, 451.586639)"/>
  <path d="m 0,0 c 0.833,-0.651 1.385,-1.538 1.653,-2.66 h -2.128 c -0.22,0.547 -0.563,0.978 -1.028,1.294 -0.465,0.316 -1.023,0.475 -1.675,0.475 -0.536,0 -1.02,-0.135 -1.452,-0.403 -0.432,-0.268 -0.767,-0.652 -1.006,-1.15 -0.24,-0.498 -0.36,-1.083 -0.36,-1.754 0,-0.661 0.12,-1.241 0.36,-1.74 0.239,-0.499 0.574,-0.881 1.006,-1.151 0.432,-0.267 0.916,-0.401 1.452,-0.401 0.652,0 1.21,0.157 1.675,0.474 0.465,0.317 0.808,0.747 1.028,1.294 H 1.653 C 1.385,-6.844 0.833,-7.73 0,-8.383 c -0.834,-0.651 -1.884,-0.976 -3.149,-0.976 -0.968,0 -1.823,0.217 -2.566,0.654 -0.743,0.435 -1.319,1.046 -1.726,1.833 -0.407,0.786 -0.61,1.677 -0.61,2.674 0,1.007 0.203,1.903 0.61,2.688 0.407,0.786 0.981,1.398 1.719,1.834 0.737,0.436 1.596,0.654 2.573,0.654 C -1.884,0.978 -0.834,0.651 0,0" style="fill:#ffffff;fill-opacity:1;fill-rule:nonzero;stroke:none" id="path178" transform="matrix(1.333333, 0, 0, -1.333333, 484.218597, 286.138824)"/>
  <path d="M 0,0 V -2.631 H 3.594 V -4.183 H 0 V -6.916 H 4.026 V -8.54 H -2.027 V 1.61 H 4.026 V 0 Z" style="fill:#ffffff;fill-opacity:1;fill-rule:nonzero;stroke:none" id="path182" transform="matrix(1.333333, 0, 0, -1.333333, 495.336456, 287.116669)"/>
  <path d="M 0,0 H -2.027 L -6.571,6.901 V 0 h -2.027 v 10.15 h 2.027 L -2.027,3.191 V 10.15 H 0 Z" style="fill:#ffffff;fill-opacity:1;fill-rule:nonzero;stroke:none" id="path186" transform="matrix(1.333333, 0, 0, -1.333333, 514.500427, 298.503326)"/>
  <path d="m 0,0 c 0.815,-0.608 1.337,-1.431 1.567,-2.466 h -2.128 c -0.201,0.461 -0.52,0.827 -0.955,1.1 -0.437,0.273 -0.952,0.411 -1.546,0.411 -0.585,0 -1.102,-0.136 -1.553,-0.403 -0.45,-0.269 -0.801,-0.653 -1.05,-1.151 -0.249,-0.498 -0.373,-1.083 -0.373,-1.754 0,-1.063 0.285,-1.893 0.855,-2.487 0.571,-0.594 1.35,-0.892 2.337,-0.892 0.728,0 1.353,0.217 1.876,0.648 0.522,0.431 0.86,1.03 1.013,1.797 h -3.436 v 1.452 H 1.74 V -5.7 C 1.597,-6.371 1.315,-6.99 0.899,-7.555 0.482,-8.121 -0.064,-8.573 -0.74,-8.913 c -0.676,-0.341 -1.45,-0.511 -2.322,-0.511 -0.997,0 -1.876,0.218 -2.638,0.654 -0.762,0.436 -1.352,1.044 -1.769,1.826 -0.417,0.782 -0.625,1.674 -0.625,2.681 0,1.007 0.208,1.9 0.625,2.682 0.417,0.781 1.004,1.393 1.761,1.833 0.757,0.44 1.634,0.661 2.631,0.661 C -1.84,0.913 -0.814,0.608 0,0" style="fill:#ffffff;fill-opacity:1;fill-rule:nonzero;stroke:none" id="path190" transform="matrix(1.333333, 0, 0, -1.333333, 527.523254, 286.052826)"/>
  <path d="M 176.427,114.813 H 174.4 v 10.15 h 2.027 z" style="fill:#ffffff;fill-opacity:1;fill-rule:nonzero;stroke:none" id="path192" transform="matrix(1.333333, 0, 0, -1.333333, 299.591034, 451.586639)"/>
  <path d="M 0,0 H -2.027 L -6.571,6.901 V 0 h -2.026 v 10.15 h 2.026 L -2.027,3.191 V 10.15 H 0 Z" style="fill:#ffffff;fill-opacity:1;fill-rule:nonzero;stroke:none" id="path196" transform="matrix(1.333333, 0, 0, -1.333333, 549.07605, 298.503326)"/>
  <path d="M 0,0 V -2.631 H 3.595 V -4.183 H 0 V -6.916 H 4.026 V -8.54 H -2.027 V 1.61 H 4.026 V 0 Z" style="fill:#ffffff;fill-opacity:1;fill-rule:nonzero;stroke:none" id="path200" transform="matrix(1.333333, 0, 0, -1.333333, 554.56427, 287.116669)"/>
  <path d="M 0,0 V -2.631 H 3.595 V -4.183 H 0 V -6.916 H 4.026 V -8.54 H -2.026 V 1.61 H 4.026 V 0 Z" style="fill:#ffffff;fill-opacity:1;fill-rule:nonzero;stroke:none" id="path204" transform="matrix(1.333333, 0, 0, -1.333333, 564.967224, 287.116669)"/>
  <path d="m 0,0 h 1.668 c 1.16,0 1.739,0.513 1.739,1.538 0,0.489 -0.141,0.87 -0.424,1.144 C 2.7,2.954 2.262,3.091 1.668,3.091 H 0 Z M 3.264,-5.349 0.891,-1.395 H 0 V -5.349 H -2.027 V 4.802 H 1.841 C 3.02,4.802 3.918,4.515 4.536,3.938 5.154,3.364 5.464,2.607 5.464,1.668 5.464,0.9 5.25,0.259 4.824,-0.26 4.397,-0.776 3.782,-1.121 2.977,-1.294 l 2.529,-4.055 z" style="fill:#ffffff;fill-opacity:1;fill-rule:nonzero;stroke:none" id="path208" transform="matrix(1.333333, 0, 0, -1.333333, 575.370972, 291.371857)"/>
  <path d="m 215.898,114.813 h -2.027 v 10.15 h 2.027 z" style="fill:#ffffff;fill-opacity:1;fill-rule:nonzero;stroke:none" id="path210" transform="matrix(1.333333, 0, 0, -1.333333, 299.591034, 451.586639)"/>
  <path d="M 0,0 H -2.027 L -6.571,6.901 V 0 h -2.027 v 10.15 h 2.027 L -2.027,3.191 V 10.15 H 0 Z" style="fill:#ffffff;fill-opacity:1;fill-rule:nonzero;stroke:none" id="path214" transform="matrix(1.333333, 0, 0, -1.333333, 601.704285, 298.503326)"/>
  <path d="m 0,0 c 0.814,-0.608 1.337,-1.431 1.567,-2.466 h -2.128 c -0.201,0.461 -0.52,0.827 -0.956,1.1 -0.436,0.273 -0.951,0.411 -1.546,0.411 -0.584,0 -1.102,-0.136 -1.552,-0.403 -0.451,-0.269 -0.801,-0.653 -1.05,-1.151 -0.249,-0.498 -0.374,-1.083 -0.374,-1.754 0,-1.063 0.286,-1.893 0.856,-2.487 0.57,-0.594 1.349,-0.892 2.336,-0.892 0.728,0 1.354,0.217 1.877,0.648 0.522,0.431 0.86,1.03 1.013,1.797 h -3.437 v 1.452 H 1.74 V -5.7 C 1.596,-6.371 1.315,-6.99 0.898,-7.555 0.481,-8.121 -0.064,-8.573 -0.741,-8.913 -1.417,-9.254 -2.19,-9.424 -3.063,-9.424 c -0.997,0 -1.875,0.218 -2.638,0.654 -0.761,0.436 -1.351,1.044 -1.768,1.826 -0.417,0.782 -0.625,1.674 -0.625,2.681 0,1.007 0.208,1.9 0.625,2.682 0.417,0.781 1.004,1.393 1.761,1.833 0.757,0.44 1.634,0.661 2.631,0.661 C -1.84,0.913 -0.815,0.608 0,0" style="fill:#ffffff;fill-opacity:1;fill-rule:nonzero;stroke:none" id="path218" transform="matrix(1.333333, 0, 0, -1.333333, 614.728271, 286.052826)"/>
  <path d="m 0,0 c 0.474,-0.371 0.787,-0.876 0.94,-1.513 h -1.211 c -0.125,0.311 -0.319,0.556 -0.583,0.736 -0.265,0.179 -0.583,0.269 -0.953,0.269 -0.306,0 -0.581,-0.076 -0.826,-0.228 -0.245,-0.154 -0.436,-0.371 -0.573,-0.655 -0.136,-0.283 -0.204,-0.616 -0.204,-0.998 0,-0.376 0.068,-0.706 0.204,-0.989 0.137,-0.283 0.328,-0.501 0.573,-0.654 0.245,-0.152 0.52,-0.229 0.826,-0.229 0.37,0 0.688,0.091 0.953,0.27 0.264,0.179 0.458,0.426 0.583,0.736 H 0.94 C 0.787,-3.893 0.474,-4.396 0,-4.768 c -0.475,-0.371 -1.071,-0.556 -1.791,-0.556 -0.55,0 -1.037,0.125 -1.459,0.372 -0.423,0.249 -0.75,0.596 -0.982,1.043 -0.231,0.447 -0.347,0.954 -0.347,1.52 0,0.574 0.116,1.083 0.347,1.531 0.232,0.446 0.557,0.794 0.977,1.042 0.42,0.248 0.908,0.372 1.464,0.372 C -1.071,0.556 -0.475,0.37 0,0" style="fill:#ffffff;fill-opacity:1;fill-rule:nonzero;stroke:none" id="path222" transform="matrix(1.333333, 0, 0, -1.333333, 475.365143, 304.651764)"/>
  <path d="m 0,0 c -0.257,-0.152 -0.457,-0.372 -0.601,-0.658 -0.145,-0.286 -0.217,-0.62 -0.217,-1.001 0,-0.382 0.072,-0.716 0.217,-1.003 0.144,-0.286 0.344,-0.505 0.601,-0.658 0.256,-0.152 0.553,-0.229 0.891,-0.229 0.338,0 0.635,0.077 0.891,0.229 0.257,0.153 0.457,0.372 0.601,0.658 0.145,0.287 0.217,0.621 0.217,1.003 0,0.381 -0.072,0.715 -0.217,1.001 C 2.239,-0.372 2.039,-0.152 1.782,0 1.526,0.152 1.229,0.229 0.891,0.229 0.553,0.229 0.256,0.152 0,0 m 2.359,0.916 c 0.438,-0.251 0.785,-0.601 1.038,-1.051 0.254,-0.449 0.38,-0.958 0.38,-1.524 0,-0.568 -0.126,-1.077 -0.38,-1.53 C 3.144,-3.642 2.797,-3.993 2.359,-4.244 1.92,-4.495 1.431,-4.62 0.891,-4.62 c -0.54,0 -1.029,0.125 -1.468,0.376 -0.438,0.251 -0.785,0.602 -1.038,1.055 -0.254,0.453 -0.38,0.962 -0.38,1.53 0,0.566 0.126,1.075 0.38,1.524 0.253,0.45 0.6,0.8 1.038,1.051 0.439,0.251 0.928,0.376 1.468,0.376 0.54,0 1.029,-0.125 1.468,-0.376" style="fill:#ffffff;fill-opacity:1;fill-rule:nonzero;stroke:none" id="path226" transform="matrix(1.333333, 0, 0, -1.333333, 483.302612, 305.600922)"/>
  <path d="m 0,0 v -5.708 h -1.145 v 3.982 L -2.608,-5.708 H -3.606 L -5.07,-1.742 V -5.708 H -6.223 V 0 h 1.399 L -3.091,-4.293 -1.39,0 Z" style="fill:#ffffff;fill-opacity:1;fill-rule:nonzero;stroke:none" id="path230" transform="matrix(1.333333, 0, 0, -1.333333, 501.028442, 304.073578)"/>
  <path d="m 0,0 c 0,0.289 -0.079,0.51 -0.237,0.662 -0.158,0.153 -0.417,0.23 -0.777,0.23 H -1.84 v -1.775 h 0.826 C -0.338,-0.883 0,-0.588 0,0 m -1.84,-1.808 v -2.141 h -1.153 v 5.773 h 2.102 C -0.21,1.824 0.304,1.659 0.65,1.333 0.996,1.006 1.169,0.562 1.169,0 1.169,-0.55 0.991,-0.989 0.634,-1.316 0.276,-1.644 -0.232,-1.808 -0.891,-1.808 Z" style="fill:#ffffff;fill-opacity:1;fill-rule:nonzero;stroke:none" id="path234" transform="matrix(1.333333, 0, 0, -1.333333, 509.751129, 306.418671)"/>
  <path d="M 0,0 -0.85,2.437 -1.701,0 Z M 0.311,-0.875 H -2.003 L -2.412,-2.036 H -3.63 l 2.126,5.708 h 1.316 L 1.93,-2.036 H 0.712 Z" style="fill:#ffffff;fill-opacity:1;fill-rule:nonzero;stroke:none" id="path238" transform="matrix(1.333333, 0, 0, -1.333333, 519.168457, 308.969452)"/>
  <path d="M 0,0 H -1.153 L -3.737,3.925 V 0 H -4.89 v 5.773 h 1.153 L -1.153,1.815 V 5.773 H 0 Z" style="fill:#ffffff;fill-opacity:1;fill-rule:nonzero;stroke:none" id="path242" transform="matrix(1.333333, 0, 0, -1.333333, 532.288147, 311.684296)"/>
  <path d="m 0,0 -1.955,-3.754 v -2.019 h -1.16 v 2.019 L -5.078,0 h 1.325 L -2.527,-2.527 -1.3,0 Z" style="fill:#ffffff;fill-opacity:1;fill-rule:nonzero;stroke:none" id="path246" transform="matrix(1.333333, 0, 0, -1.333333, 543.085754, 303.98642)"/>
  <path d="M 120.892,107.509 H 71.78 v 0.633 h 49.112 z" style="fill:#ffffff;fill-opacity:1;fill-rule:nonzero;stroke:none" id="path248" transform="matrix(1.333333, 0, 0, -1.333333, 299.591034, 451.586639)"/>
  <path d="M 238.093,107.509 H 188.98 v 0.633 h 49.113 z" style="fill:#ffffff;fill-opacity:1;fill-rule:nonzero;stroke:none" id="path250" transform="matrix(1.333333, 0, 0, -1.333333, 299.591034, 451.586639)"/>
  <path d="m 0,0 v -11.281 h -47.033 v 60.74 H -1.127 V 38.178 H -33.059 V 24.989 H -4.862 V 14.054 H -33.059 V 0 Z" style="fill:#ffffff;fill-opacity:1;fill-rule:nonzero;stroke:none" id="path254" transform="matrix(1.333333, 0, 0, -1.333333, 531.358582, 255.574905)"/>
  <path d="m 0,0 c -5.004,2.688 -8.935,6.419 -11.8,11.192 -2.862,4.774 -4.295,10.168 -4.295,16.184 0,6.016 1.433,11.41 4.295,16.184 2.865,4.772 6.796,8.503 11.8,11.192 5.004,2.688 10.629,4.037 16.879,4.037 5.262,0 10.022,-0.928 14.272,-2.777 4.254,-1.855 7.825,-4.517 10.718,-7.986 l -9.024,-8.331 c -4.112,4.743 -9.2,7.116 -15.273,7.116 -3.762,0 -7.116,-0.826 -10.066,-2.471 -2.95,-1.651 -5.248,-3.948 -6.899,-6.899 -1.65,-2.95 -2.47,-6.307 -2.47,-10.065 0,-3.762 0.82,-7.116 2.47,-10.065 1.651,-2.951 3.949,-5.248 6.899,-6.899 2.95,-1.65 6.304,-2.472 10.066,-2.472 6.073,0 11.161,2.396 15.273,7.201 L 41.869,6.81 C 38.976,3.283 35.387,0.59 31.106,-1.26 26.826,-3.109 22.052,-4.037 16.791,-4.037 10.598,-4.037 5.004,-2.692 0,0" style="fill:#ffffff;fill-opacity:1;fill-rule:nonzero;stroke:none" id="path258" transform="matrix(1.333333, 0, 0, -1.333333, 561.223083, 266.62442)"/>
  <path d="M 0,0 H 19.265 V 11.277 H -6.908 Z" style="fill:#e30613;fill-opacity:1;fill-rule:nonzero;stroke:none" id="path262" transform="matrix(1.333333, 0, 0, -1.333333, 425.837799, 237.292435)"/>
  <path d="m 0,0 v -60.74 h 14.058 v 49.459 H 45.906 V 0 Z" style="fill:#ffffff;fill-opacity:1;fill-rule:nonzero;stroke:none" id="path266" transform="matrix(1.333333, 0, 0, -1.333333, 395.297424, 189.629623)"/>
</svg>