<?xml version="1.0" encoding="UTF-8" standalone="no"?>
<svg
   xmlns:dc="http://purl.org/dc/elements/1.1/"
   xmlns:cc="http://creativecommons.org/ns#"
   xmlns:rdf="http://www.w3.org/1999/02/22-rdf-syntax-ns#"
   xmlns:svg="http://www.w3.org/2000/svg"
   xmlns="http://www.w3.org/2000/svg"
   xmlns:sodipodi="http://sodipodi.sourceforge.net/DTD/sodipodi-0.dtd"
   xmlns:inkscape="http://www.inkscape.org/namespaces/inkscape"
   viewBox="469.32 228.652 201.78943 49.999999"
   class="float-start me-4 mt-2"
   width="50.447357"
   version="1.1"
   id="svg4"
   sodipodi:docname="humble_interaction (2).svg"
   height="50"
   inkscape:version="1.0.2-2 (e86c870879, 2021-01-15)">
  <metadata
     id="metadata10">
    <rdf:RDF>
      <cc:Work
         rdf:about="">
        <dc:format>image/svg+xml</dc:format>
        <dc:type
           rdf:resource="http://purl.org/dc/dcmitype/StillImage" />
        <dc:title></dc:title>
      </cc:Work>
    </rdf:RDF>
  </metadata>
  <defs
     id="defs8" />
  <sodipodi:namedview
     pagecolor="#ffffff"
     bordercolor="#666666"
     borderopacity="1"
     objecttolerance="10"
     gridtolerance="10"
     guidetolerance="10"
     inkscape:pageopacity="0"
     inkscape:pageshadow="2"
     inkscape:window-width="1920"
     inkscape:window-height="1009"
     id="namedview6"
     showgrid="false"
     inkscape:zoom="8.6632644"
     inkscape:cx="6.2862341"
     inkscape:cy="22.066231"
     inkscape:window-x="-8"
     inkscape:window-y="-8"
     inkscape:window-maximized="1"
     inkscape:current-layer="svg4" />
  <g
     id="g-1"
     transform="matrix(8.2310923,0,0,8.2311507,469.32,153.652)">
    <path
       style="fill:#001a41;stroke-width:0.264583"
       d="m 0.1743233,23.874309 c -0.3342094,-0.870935 0.593743,-2.093912 2.2644529,-2.984391 0.8892448,-0.473963 1.6168087,-1.02776 1.6168087,-1.23066 0,-0.470254 -0.5652725,-1.754196 -0.9513718,-2.160916 -0.4740106,-0.499326 -0.4104539,-3.509338 0.092063,-4.360029 0.7219418,-1.222152 3.1059349,-1.948725 3.7697259,-1.148905 0.1811569,0.218281 0.4847499,0.396875 0.6746519,0.396875 0.189901,0 0.587488,0.307925 0.883526,0.684277 l 0.538253,0.684276 -0.02927,1.717458 c -0.0161,0.944602 -0.161761,1.857069 -0.323698,2.027703 -0.393997,0.415157 -0.949717,1.694187 -0.949717,2.185842 0,0.230186 0.700802,0.70992 1.676662,1.147759 0.9221651,0.413747 1.9358631,1.081788 2.2526641,1.484535 0.620915,0.789365 0.62126,0.789355 1.04734,-0.03149 0.157215,-0.302873 1.00678,-0.934933 1.887923,-1.404577 0.881143,-0.469645 1.602078,-1.019909 1.602078,-1.222809 0,-0.470254 -0.565273,-1.754196 -0.951372,-2.160916 -0.474011,-0.499326 -0.410454,-3.509338 0.09206,-4.360029 0.721943,-1.222152 3.105935,-1.948725 3.769726,-1.148905 0.181158,0.218281 0.484751,0.396875 0.674652,0.396875 0.189901,0 0.587488,0.307925 0.883527,0.684277 l 0.538253,0.684276 -0.02927,1.717458 c -0.0161,0.944602 -0.16176,1.857069 -0.323697,2.027703 -0.393997,0.415157 -0.949718,1.694187 -0.949718,2.185842 0,0.230186 0.700803,0.70992 1.676663,1.147759 1.801473,0.808266 2.892311,1.905056 2.766874,2.781969 L 24.296203,24.16024 12.316539,24.22909 0.3368759,24.29794 Z M 10.934752,22.954563 c 0,-0.1538 -0.876133,-0.678903 -1.9469621,-1.166896 -2.4913039,-1.135324 -2.8715289,-2.029369 -1.704362,-4.00757 1.027167,-1.740919 0.856977,-4.600064 -0.273819,-4.600064 -0.2568169,0 -0.5925939,-0.125653 -0.7461699,-0.279229 -0.407412,-0.407413 -1.6469121,-0.01523 -2.0902271,0.661352 -0.5406044,0.825066 -0.3549288,3.008435 0.358697,4.217941 1.1149041,1.889622 0.7959671,2.778301 -1.424856,3.970181 C 2.264183,22.202632 1.5275577,22.721569 1.4701082,22.90347 L 1.3656543,23.234199 H 6.150203 c 3.1850129,0 4.784549,-0.09349 4.784549,-0.279636 z m 12.170834,0 c 0,-0.1538 -0.876133,-0.678903 -1.946962,-1.166896 -2.491305,-1.135324 -2.871529,-2.029369 -1.704363,-4.00757 1.027168,-1.740919 0.856978,-4.600064 -0.273818,-4.600064 -0.256818,0 -0.592594,-0.125653 -0.74617,-0.279229 -0.407413,-0.407413 -1.646912,-0.01523 -2.090227,0.661352 -0.540605,0.825066 -0.354929,3.008435 0.358697,4.217941 1.114904,1.889622 0.795966,2.778301 -1.424856,3.970181 -0.84287,0.452354 -1.579495,0.971291 -1.636945,1.153192 l -0.104454,0.330729 h 4.784549 c 3.185013,0 4.784549,-0.09349 4.784549,-0.279636 z M 0.3403976,13.828211 0,13.418058 l 0.4402924,-0.440292 0.4402925,-0.440292 0.4402924,0.440292 0.4402925,0.440292 -0.3403977,0.410153 c -0.1872186,0.225585 -0.4303029,0.410154 -0.5401872,0.410154 -0.1098843,0 -0.3529686,-0.184569 -0.5401873,-0.410154 z m 22.7541674,0 -0.340398,-0.410153 0.440293,-0.440292 0.440292,-0.440292 0.440293,0.440292 0.440292,0.440292 -0.340397,0.410153 c -0.187219,0.225585 -0.430303,0.410154 -0.540188,0.410154 -0.109884,0 -0.352969,-0.184569 -0.540187,-0.410154 z M 0.6160015,11.063366 C -0.4276297,10.019735 0.3734714,8.4175326 1.9389182,8.4175326 c 0.90999,0 1.8520834,0.8075086 1.8520834,1.5875004 0,0.779991 -0.9420934,1.5875 -1.8520834,1.5875 -0.4409722,0 -1.0289352,-0.235185 -1.3229167,-0.529167 z m 1.9843751,-1.05471 c 0,-0.4710175 -0.8727231,-0.691942 -1.2485919,-0.3160733 -0.1464883,0.1464884 -0.182138,0.4025883 -0.079222,0.5691103 0.2630081,0.425556 1.3278136,0.22264 1.3278139,-0.253037 z m 18.6531254,1.05471 c -1.043631,-1.043631 -0.24253,-2.6458334 1.322917,-2.6458334 0.90999,0 1.852083,0.8075086 1.852083,1.5875004 0,0.779991 -0.942093,1.5875 -1.852083,1.5875 -0.440972,0 -1.028935,-0.235185 -1.322917,-0.529167 z m 1.984375,-1.05471 c 0,-0.4710175 -0.872723,-0.691942 -1.248592,-0.3160733 -0.146488,0.1464884 -0.182138,0.4025883 -0.07922,0.5691103 0.263008,0.425556 1.327813,0.22264 1.327813,-0.253037 z M 12.796502,10.768551 C 12.292495,10.615237 11.538968,10.246873 11.121996,9.9499627 L 10.363866,9.410126 8.4664959,9.365041 C 3.3271008,9.2429188 0.9443339,4.7302428 4.3194989,1.5111223 6.292808,-0.37095441 11.021989,-0.53016951 12.61654,1.2317897 l 0.445658,0.4924461 1.279036,-0.1228989 c 6.018765,-0.5783274 8.805213,6.0828069 3.645622,8.7150331 -1.255541,0.64053 -3.832994,0.865076 -5.190354,0.452181 z M 17.299884,9.4441294 C 21.309572,7.7192082 20.04687,3.0855544 15.453631,2.6690539 l -1.553225,-0.1408414 0.276818,1.0371 c 0.516417,1.9347596 -0.6215,4.4885495 -2.227068,4.9981367 L 11.410651,8.7346817 11.71353,9.039128 c 1.014241,1.01949 3.704548,1.214533 5.586354,0.4050014 z m -6.35,-1.5875 C 13.050511,6.952964 13.877212,4.9785974 12.925542,3.1382702 11.621986,0.61747109 6.227639,0.28947719 4.5612569,2.6296945 2.0354983,6.176795 6.453086,9.7910998 10.949884,7.8566294 Z"
       id="path92" />
  </g>
</svg>
