<?xml version="1.0" encoding="UTF-8" standalone="no"?>
<svg
   xmlns:dc="http://purl.org/dc/elements/1.1/"
   xmlns:cc="http://creativecommons.org/ns#"
   xmlns:rdf="http://www.w3.org/1999/02/22-rdf-syntax-ns#"
   xmlns:svg="http://www.w3.org/2000/svg"
   xmlns="http://www.w3.org/2000/svg"
   xmlns:sodipodi="http://sodipodi.sourceforge.net/DTD/sodipodi-0.dtd"
   xmlns:inkscape="http://www.inkscape.org/namespaces/inkscape"
   viewBox="464.516 268.774 210.50344 49.999999"
   class="float-start me-4 mt-2"
   width="52.625862"
   version="1.1"
   id="svg4"
   sodipodi:docname="integrity.svg"
   height="50"
   inkscape:version="1.0.2-2 (e86c870879, 2021-01-15)">
  <metadata
     id="metadata10">
    <rdf:RDF>
      <cc:Work
         rdf:about="">
        <dc:format>image/svg+xml</dc:format>
        <dc:type
           rdf:resource="http://purl.org/dc/dcmitype/StillImage" />
        <dc:title></dc:title>
      </cc:Work>
    </rdf:RDF>
  </metadata>
  <defs
     id="defs8" />
  <sodipodi:namedview
     pagecolor="#ffffff"
     bordercolor="#666666"
     borderopacity="1"
     objecttolerance="10"
     gridtolerance="10"
     guidetolerance="10"
     inkscape:pageopacity="0"
     inkscape:pageshadow="2"
     inkscape:window-width="1920"
     inkscape:window-height="1009"
     id="namedview6"
     showgrid="false"
     inkscape:zoom="3.2184305"
     inkscape:cx="46.767545"
     inkscape:cy="46.717241"
     inkscape:window-x="-8"
     inkscape:window-y="-8"
     inkscape:window-maximized="1"
     inkscape:current-layer="svg4" />
  <g
     id="g-6"
     transform="matrix(8.6489682,0,0,8.6489455,464.516,193.774)">
    <path
       style="fill:#001a41;stroke-width:0.264583"
       d="m 17.330208,22.75364 c -1.163443,-0.411343 -2.515293,-1.731194 -2.510462,-2.451039 0.0017,-0.252365 0.894662,-3.003333 1.984375,-6.113261 1.089712,-3.109928 1.981295,-5.7373967 1.981295,-5.8388187 0,-0.1014222 -1.011955,-0.3198021 -2.24879,-0.4852889 L 14.287835,7.5643471 13.638236,8.2139466 c -0.405343,0.4053422 -0.952582,0.6495997 -1.455376,0.6495997 -0.756875,0 -1.013617,-0.1868535 -2.231135,-1.623795 C 9.711003,6.955645 8.931691,6.741002 7.687097,6.616012 6.643414,6.511199 5.750705,6.468001 5.703297,6.520012 c -0.04741,0.05201 0.791611,2.5948845 1.864486,5.650822 1.072873,3.055938 1.95215,5.776516 1.953948,6.045729 0.0018,0.269214 -0.389272,0.882019 -0.869042,1.361791 -1.936991,1.93699 -5.843387,1.93699 -7.780378,0 C 0.39254,19.098582 0,18.49751 0,18.242636 0,17.688388 4.171764,5.646077 4.466105,5.350676 4.578765,5.237609 5.882065,5.327006 7.362327,5.54934 l 2.691384,0.40424 0.529394,-0.529394 c 0.291167,-0.291166 0.648457,-0.529394 0.793978,-0.529394 0.379649,0 0.327116,-2.817465 -0.06422,-3.444088 C 10.883701,0.763506 11.335243,0 12.170829,0 c 0.835581,0 1.287128,0.763506 0.857966,1.450704 -0.18084,0.28957 -0.328799,1.174927 -0.328799,1.96746 V 4.859133 L 13.18901,5.01434 c 0.268958,0.08536 0.622096,0.44729 0.784752,0.80428 0.321745,0.706155 0.434951,0.743796 3.753317,1.2479998 l 2.248958,0.3417142 2.179766,6.217708 c 1.198871,3.41974 2.181136,6.437974 2.182812,6.707188 0.0046,0.738322 -1.605219,2.196245 -2.787493,2.524481 -1.399727,0.388609 -2.934438,0.350767 -4.220918,-0.104075 z m 4.564063,-1.182968 c 1.881502,-0.854046 1.422128,-1.065459 -2.315105,-1.065459 -2.223552,0 -3.439583,0.09811 -3.439583,0.277519 0,0.472791 2.187077,1.29836 3.439583,1.29836 0.654844,0 1.696641,-0.229689 2.315105,-0.51042 z M 7.077604,19.454005 C 8.959106,18.59996 8.499732,18.388546 4.7625,18.388546 c -2.223553,0 -3.439584,0.09811 -3.439584,0.27752 0,0.47279 2.187078,1.298359 3.439584,1.298359 0.654844,0 1.69664,-0.229689 2.315104,-0.51042 z m 15.87593,-0.337854 c -0.06701,-0.181902 -0.823886,-2.38344 -1.681953,-4.892308 -0.858068,-2.508868 -1.619654,-4.5615788 -1.692415,-4.5615788 -0.07276,0 -0.834346,2.0527108 -1.692414,4.5615788 -0.858068,2.508868 -1.614947,4.710406 -1.681953,4.892308 l -0.121831,0.330729 h 3.496198 3.496199 z M 8.136868,16.999484 C 8.069858,16.817583 7.312982,14.616045 6.454914,12.107176 5.596847,9.598308 4.83526,7.5455974 4.7625,7.5455974 c -0.07276,0 -0.834347,2.0527106 -1.692415,4.5615786 -0.858067,2.508869 -1.614946,4.710407 -1.681953,4.892308 L 1.266301,17.330213 H 4.7625 8.258698 Z M 12.954034,7.4210483 C 13.365355,6.925437 13.221687,6.22074 12.633854,5.85055 11.7171,5.273221 10.684778,6.574161 11.387632,7.4210483 c 0.408678,0.4924269 1.157724,0.4924269 1.566402,0 z"
       id="path186" />
  </g>
</svg>
