<?xml version="1.0" encoding="UTF-8" standalone="no"?>
<svg
   xmlns:dc="http://purl.org/dc/elements/1.1/"
   xmlns:cc="http://creativecommons.org/ns#"
   xmlns:rdf="http://www.w3.org/1999/02/22-rdf-syntax-ns#"
   xmlns:svg="http://www.w3.org/2000/svg"
   xmlns="http://www.w3.org/2000/svg"
   xmlns:sodipodi="http://sodipodi.sourceforge.net/DTD/sodipodi-0.dtd"
   xmlns:inkscape="http://www.inkscape.org/namespaces/inkscape"
   viewBox="13.496 16.457 220.43569 49.999999"
   class="float-start me-4 mt-2"
   width="55.108921"
   version="1.1"
   id="svg4"
   sodipodi:docname="physical_fitness.svg"
   height="50"
   inkscape:version="1.0.2-2 (e86c870879, 2021-01-15)">
  <metadata
     id="metadata10">
    <rdf:RDF>
      <cc:Work
         rdf:about="">
        <dc:format>image/svg+xml</dc:format>
        <dc:type
           rdf:resource="http://purl.org/dc/dcmitype/StillImage" />
      </cc:Work>
    </rdf:RDF>
  </metadata>
  <defs
     id="defs8" />
  <sodipodi:namedview
     pagecolor="#ffffff"
     bordercolor="#666666"
     borderopacity="1"
     objecttolerance="10"
     gridtolerance="10"
     guidetolerance="10"
     inkscape:pageopacity="0"
     inkscape:pageshadow="2"
     inkscape:window-width="1920"
     inkscape:window-height="1009"
     id="namedview6"
     showgrid="false"
     inkscape:zoom="4.7654622"
     inkscape:cx="9.1054177"
     inkscape:cy="61.789284"
     inkscape:window-x="-8"
     inkscape:window-y="-8"
     inkscape:window-maximized="1"
     inkscape:current-layer="svg4" />
  <g
     id="layer1"
     transform="matrix(9.0559125,0,0,9.0558991,13.496,-58.543003)">
    <path
       style="fill:#ffffff;stroke-width:0.264583"
       d="m 8.603938,21.836185 c -0.0872,-0.141089 -0.03469,-1.463392 0.116677,-2.938451 0.15137,-1.475059 0.275218,-2.725784 0.275218,-2.779389 0,-0.05361 -0.35602,-0.281568 -0.791154,-0.506585 C 7.377223,15.183866 6.35,13.503741 6.35,12.57825 c 0,-0.363319 -0.172944,-0.539708 -0.529167,-0.539708 -0.485069,0 -0.529167,0.176389 -0.529167,2.116667 0,1.763889 -0.08819,2.204861 -0.529166,2.645833 -0.291042,0.291042 -0.767292,0.529167 -1.058334,0.529167 -0.724193,0 -1.5875,-0.921779 -1.5875,-1.695021 0,-0.49614 -0.111413,-0.607553 -0.504705,-0.504705 C 1.312804,15.208714 0.881784,15.036994 0.553628,14.708838 0.044572,14.199782 0,13.856987 0,10.451042 0,7.0450978 0.04457,6.7023031 0.553628,6.1932471 0.881784,5.865091 1.312804,5.6933706 1.611961,5.7716018 c 0.393292,0.102848 0.504705,-0.00857 0.504705,-0.5047049 0,-0.7732424 0.863307,-1.6950209 1.5875,-1.6950209 0.291042,0 0.767292,0.238125 1.058334,0.529166 0.440972,0.4409725 0.529166,0.8819445 0.529166,2.6458336 v 2.1166667 h 1.322917 c 1.293519,0 1.322917,-0.01764 1.322917,-0.79375 0,-1.1049162 0.893444,-1.9512069 1.856567,-1.7585826 0.480784,0.096157 0.856096,0.012486 1.063169,-0.2370225 0.176032,-0.2121048 0.529025,-0.385645 0.78443,-0.385645 0.255405,0 0.608399,0.1735402 0.78443,0.385645 0.203134,0.2447613 0.582849,0.3330866 1.039405,0.2417755 0.469161,-0.093832 0.837245,-0.0018 1.058333,0.2645833 0.22526,0.2714213 0.588292,0.3585917 1.082098,0.2598304 0.862391,-0.1724782 1.856568,0.6275459 1.856568,1.4939992 0,0.4115742 0.176389,0.5291667 0.79375,0.5291667 H 19.05 V 6.7468756 c 0,-1.7638891 0.08819,-2.2048611 0.529166,-2.6458336 0.291042,-0.291041 0.767292,-0.529166 1.058334,-0.529166 0.724193,0 1.5875,0.9217785 1.5875,1.6950209 0,0.4961398 0.111413,0.6075529 0.504705,0.5047049 0.299157,-0.078231 0.730177,0.093489 1.058333,0.4216453 0.509056,0.509056 0.553629,0.8518507 0.553629,4.2577949 0,3.405945 -0.04457,3.74874 -0.553629,4.257796 -0.328156,0.328156 -0.759176,0.499876 -1.058333,0.421645 -0.393292,-0.102848 -0.504705,0.0086 -0.504705,0.504705 0,0.773242 -0.863307,1.695021 -1.5875,1.695021 -0.291042,0 -0.767292,-0.238125 -1.058334,-0.529167 C 19.138194,16.36007 19.05,15.919098 19.05,14.155209 v -2.116667 h -0.79375 c -0.748492,0 -0.79375,0.05982 -0.79375,1.049127 0,0.787413 -0.197164,1.273684 -0.790362,1.9493 l -0.790362,0.900172 0.270669,2.856644 c 0.186305,1.966277 0.185249,2.942063 -0.0034,3.130701 -0.523779,0.52378 -0.761899,-0.223872 -1.065805,-3.34643 l -0.303432,-3.117777 0.812179,-0.758689 c 0.811655,-0.758198 0.812179,-0.760572 0.812179,-3.679628 0,-3.1196211 -0.251224,-3.7575945 -1.058333,-2.6875864 C 14.845541,8.9976284 14.2875,8.8581181 14.2875,8.0697923 c 0,-0.8017415 -0.56053,-0.9244418 -1.080353,-0.2364899 -0.512521,0.6782877 -0.909568,0.5221121 -1.080402,-0.4249685 -0.0525,-0.2910416 -0.270784,-0.5291667 -0.485079,-0.5291667 -0.214295,0 -0.432581,0.2381251 -0.485079,0.5291667 C 10.985753,8.3554145 10.588706,8.5115901 10.076186,7.8333024 9.298262,6.803771 8.995833,7.3557747 8.995833,9.8051989 V 12.038542 H 8.16901 c -0.790223,0 -0.819532,0.03806 -0.662115,0.859896 0.152779,0.797617 1.036936,1.817157 2.122414,2.447396 0.418203,0.242813 0.430563,0.514945 0.150223,3.307292 -0.168011,1.673489 -0.360571,3.132005 -0.42791,3.241146 -0.171187,0.27745 -0.558927,0.247327 -0.747684,-0.05809 z M 4.101041,10.428994 c 0,-4.8604943 -0.05645,-5.6664935 -0.396875,-5.6664935 -0.337515,0 -0.407615,0.8101738 -0.468687,5.4168145 -0.0395,2.979248 -0.0097,5.578759 0.06629,5.77669 0.07595,0.197931 0.286863,0.310287 0.468687,0.249679 0.250677,-0.08356 0.33059,-1.479953 0.33059,-5.77669 z m 16.933334,0 c 0,-4.8604943 -0.05645,-5.6664935 -0.396875,-5.6664935 -0.337516,0 -0.407616,0.8101738 -0.468687,5.4168145 -0.0395,2.979248 -0.0097,5.578759 0.06629,5.77669 0.07595,0.197931 0.286862,0.310287 0.468687,0.249679 0.250677,-0.08356 0.33059,-1.479953 0.33059,-5.77669 z m -19.05,0 c 0,-2.9790128 -0.06382,-3.5498268 -0.396875,-3.5498268 -0.327515,0 -0.409931,0.5754363 -0.471578,3.2926158 -0.07902,3.482727 0.005,4.094844 0.537863,3.917234 0.242495,-0.08083 0.33059,-1.056144 0.33059,-3.660023 z m 21.166666,0 c 0,-2.9790128 -0.06382,-3.5498268 -0.396875,-3.5498268 -0.327514,0 -0.40993,0.5754363 -0.471577,3.2926158 -0.07902,3.482727 0.005,4.094844 0.537862,3.917234 0.242496,-0.08083 0.33059,-1.056144 0.33059,-3.660023 z M 7.9375,10.451043 c 0,-0.4586112 -0.176389,-0.5291669 -1.322917,-0.5291669 -1.146528,0 -1.322917,0.070556 -1.322917,0.5291669 0,0.458611 0.176389,0.529167 1.322917,0.529167 1.146528,0 1.322917,-0.07056 1.322917,-0.529167 z m 11.1125,0 c 0,-0.411574 -0.176389,-0.5291669 -0.79375,-0.5291669 -0.617361,0 -0.79375,0.1175929 -0.79375,0.5291669 0,0.411574 0.176389,0.529167 0.79375,0.529167 0.617361,0 0.79375,-0.117593 0.79375,-0.529167 z M 7.512459,2.607523 C 6.867843,1.149934 6.834504,0.396875 7.414589,0.396875 c 0.37944,0 1.647701,2.884768 1.470862,3.345603 C 8.613996,4.449879 8.161996,4.076244 7.512459,2.607523 Z m 4.248019,1.156924 C 11.680148,3.555118 11.650323,2.622483 11.694198,1.691924 11.755108,0.399832 11.867751,0 12.170838,0 c 0.317104,0 0.396875,0.394426 0.396875,1.962327 0,1.334235 -0.105814,1.997598 -0.33059,2.072523 -0.181825,0.06061 -0.396312,-0.06107 -0.47664,-0.270403 z m 3.695736,-0.02197 c -0.176838,-0.460834 1.091423,-3.345602 1.470863,-3.345602 0.580085,0 0.546746,0.753058 -0.09787,2.210648 -0.649539,1.468721 -1.101538,1.842356 -1.372993,1.134954 z"
       id="path148" />
  </g>
</svg>
