<?xml version="1.0" encoding="UTF-8" standalone="no"?>
<svg
   xmlns:dc="http://purl.org/dc/elements/1.1/"
   xmlns:cc="http://creativecommons.org/ns#"
   xmlns:rdf="http://www.w3.org/1999/02/22-rdf-syntax-ns#"
   xmlns:svg="http://www.w3.org/2000/svg"
   xmlns="http://www.w3.org/2000/svg"
   xmlns:sodipodi="http://sodipodi.sourceforge.net/DTD/sodipodi-0.dtd"
   xmlns:inkscape="http://www.inkscape.org/namespaces/inkscape"
   viewBox="502.998 220.979 192.8422 49.999998"
   class="float-start me-4 mt-2"
   width="48.210552"
   version="1.1"
   id="svg4"
   sodipodi:docname="purposeful_speed.svg"
   height="50"
   inkscape:version="1.0.2-2 (e86c870879, 2021-01-15)">
  <metadata
     id="metadata10">
    <rdf:RDF>
      <cc:Work
         rdf:about="">
        <dc:format>image/svg+xml</dc:format>
        <dc:type
           rdf:resource="http://purl.org/dc/dcmitype/StillImage" />
      </cc:Work>
    </rdf:RDF>
  </metadata>
  <defs
     id="defs8" />
  <sodipodi:namedview
     pagecolor="#ffffff"
     bordercolor="#666666"
     borderopacity="1"
     objecttolerance="10"
     gridtolerance="10"
     guidetolerance="10"
     inkscape:pageopacity="0"
     inkscape:pageshadow="2"
     inkscape:window-width="1920"
     inkscape:window-height="1009"
     id="namedview6"
     showgrid="false"
     inkscape:zoom="6.2915704"
     inkscape:cx="8.5158568"
     inkscape:cy="35.675676"
     inkscape:window-x="-8"
     inkscape:window-y="-8"
     inkscape:window-maximized="1"
     inkscape:current-layer="svg4" />
  <g
     id="g-2"
     transform="matrix(8.4540971,0,0,8.4540187,502.998,145.979)">
    <path
       style="fill:#001a41;stroke-width:0.264583"
       d="m 13.405979,23.037516 c -0.747701,-0.747701 -0.765822,-0.985871 -0.252557,-3.319319 0.5469,-2.486358 0.532455,-2.544072 -0.837735,-3.347056 l -1.234609,-0.72353 -0.411841,0.646231 c -0.226511,0.355426 -0.8475553,1.092715 -1.3800963,1.638418 l -0.968256,0.992187 h -2.95357 -2.953571 l -0.649432,-0.649431 c -0.357188,-0.357188 -0.649432,-0.898381 -0.649432,-1.202652 0,-0.304271 0.292244,-0.845464 0.649432,-1.202652 l 0.649432,-0.649431 h 2.205081 2.205083 l 0.849653,-1.401921 c 0.467309,-0.771056 0.84988,-1.515197 0.850158,-1.653645 2.65e-4,-0.138449 0.602415,-1.252512 1.338083,-2.4756964 l 1.3375773,-2.22397 -0.345895,-0.219374 c -0.634596,-0.402474 -1.1199273,-0.23622 -2.9066493,0.9957 l -1.774041,1.223177 -0.685872,-0.172143 c -2.058057,-0.516539 -1.453631,-2.183636 1.535433,-4.23495 l 2.273178,-1.5600201 2.1935283,0.4647914 c 4.134399,0.8760477 4.735145,1.3180927 6.040865,4.4450307 l 0.856239,2.0505204 h 1.683108 1.683108 l 0.529167,0.529167 c 0.291041,0.291042 0.529166,0.767292 0.529166,1.058333 0,0.291042 -0.238125,0.767292 -0.529166,1.058334 l -0.529167,0.529166 h -2.227319 c -2.765275,0 -2.956678,-0.07461 -3.643137,-1.420185 l -0.556249,-1.090338 -0.41214,0.870243 -0.41214,0.870242 1.508826,1.393055 c 1.744862,1.610981 1.672233,1.208084 0.929202,5.1546 l -0.579622,3.078598 -0.598976,0.598976 c -0.775524,0.775524 -1.545361,0.759029 -2.354847,-0.05046 z m 1.866807,-0.67785 c 0.09142,-0.147921 0.220565,-0.594406 0.286986,-0.992187 0.06642,-0.397782 0.307305,-1.735271 0.535295,-2.972198 l 0.414528,-2.248959 -1.669702,-1.518893 -1.669702,-1.518892 1.42134,-2.880683 C 16.44699,6.4673266 16.210368,6.0567616 11.604509,5.0450546 L 9.5264287,4.5885902 7.6938637,5.8521186 c -2.226201,1.534934 -2.539923,1.87139 -2.128533,2.28278 0.224309,0.224309 0.768801,-0.02235 2.147007,-0.972601 l 1.846483,-1.273124 0.7389673,0.148385 c 2.592214,0.52052 2.605994,0.595866 0.694743,3.798616 l -1.4994323,2.5126534 0.242661,0.682102 c 0.161241,0.453234 1.0194533,1.162324 2.5577663,2.113331 l 2.315105,1.43123 v 0.61701 c 0,0.339356 -0.188715,1.529537 -0.419365,2.644846 -0.496838,2.402454 0.181568,3.981709 1.08352,2.522319 z M 8.3008687,17.535385 c 0.224379,-0.181901 0.743111,-0.784548 1.152738,-1.339215 l 0.7447763,-1.008486 -0.6671113,-0.66711 -0.667111,-0.667111 -0.765786,1.212102 -0.765786,1.212103 -2.4557,4.73e-4 -2.4557,4.73e-4 -0.152295,0.396875 c -0.08376,0.218281 -0.08376,0.575469 0,0.79375 l 0.152295,0.396875 h 2.73586 c 1.794718,0 2.876198,-0.113771 3.14382,-0.330729 z M 21.620089,12.045281 v -0.396875 l -1.9385,-0.07815 -1.9385,-0.07815 -0.602648,-1.365534 -0.602648,-1.3655344 -0.30994,0.579128 -0.309939,0.579127 0.678074,1.3381164 0.678075,1.338115 2.173013,-0.07669 2.173013,-0.07669 z m -20.6060573,0.06615 c -1.80453396,-1.854887 -1.08113396,-4.5470114 1.225643,-4.5612104 2.080245,-0.01281 3.722731,3.6624134 2.248643,5.0315494 -1.46991,1.365254 -1.72168,1.33117 -3.474286,-0.470339 z m 2.861377,-0.312362 0.742864,-0.775384 -1.210941,-1.2751374 -1.210941,-1.275138 -0.800479,0.793979 -0.80047896,0.7939784 1.07405896,1.256543 c 1.265686,1.480725 1.251281,1.477583 2.205917,0.481159 z M 15.772797,4.2665309 c -1.220633,-1.2206333 -1.220633,-2.2718668 0,-3.49250008 1.624641,-1.6246409 4.392084,-0.5243324 4.392084,1.74625008 0,2.2705827 -2.767443,3.3708907 -4.392084,1.74625 z M 18.577381,3.5786142 C 19.52593,2.630065 18.847016,0.93278082 17.519047,0.93278082 c -0.681451,0 -1.5875,0.90604868 -1.5875,1.58750008 0,0.2910416 0.238125,0.7672916 0.529167,1.0583333 0.291042,0.2910417 0.767292,0.5291667 1.058333,0.5291667 0.291042,0 0.767292,-0.238125 1.058334,-0.5291667 z"
       id="path110" />
  </g>
</svg>
