<?xml version="1.0" encoding="UTF-8" standalone="no"?>
<svg
   xmlns:dc="http://purl.org/dc/elements/1.1/"
   xmlns:cc="http://creativecommons.org/ns#"
   xmlns:rdf="http://www.w3.org/1999/02/22-rdf-syntax-ns#"
   xmlns:svg="http://www.w3.org/2000/svg"
   xmlns="http://www.w3.org/2000/svg"
   xmlns:sodipodi="http://sodipodi.sourceforge.net/DTD/sodipodi-0.dtd"
   xmlns:inkscape="http://www.inkscape.org/namespaces/inkscape"
   viewBox="490.503 206.741 250.68037 49.999999"
   class="float-start me-4 mt-2"
   width="62.670094"
   version="1.1"
   id="svg4"
   sodipodi:docname="team_commitment.svg"
   height="50"
   inkscape:version="1.0.2-2 (e86c870879, 2021-01-15)">
  <metadata
     id="metadata10">
    <rdf:RDF>
      <cc:Work
         rdf:about="">
        <dc:format>image/svg+xml</dc:format>
        <dc:type
           rdf:resource="http://purl.org/dc/dcmitype/StillImage" />
      </cc:Work>
    </rdf:RDF>
  </metadata>
  <defs
     id="defs8" />
  <sodipodi:namedview
     pagecolor="#ffffff"
     bordercolor="#666666"
     borderopacity="1"
     objecttolerance="10"
     gridtolerance="10"
     guidetolerance="10"
     inkscape:pageopacity="0"
     inkscape:pageshadow="2"
     inkscape:window-width="1920"
     inkscape:window-height="1009"
     id="namedview6"
     showgrid="false"
     inkscape:zoom="32.762144"
     inkscape:cx="15.902425"
     inkscape:cy="3.1717475"
     inkscape:window-x="-8"
     inkscape:window-y="-8"
     inkscape:window-maximized="1"
     inkscape:current-layer="svg4" />
  <g
     id="g-5"
     transform="matrix(7.8819483,0,0,7.88196,490.503,131.741)">
    <path
       style="fill:#ffffff;stroke-width:0.0324593"
       d="M 16.213434,25.356895 C 15.72163,25.284335 15.216873,25.118612 14.750937,24.87672 l -0.32642,-0.169462 -0.152705,0.105234 c -0.756794,0.521532 -1.912915,0.222887 -2.289198,-0.591339 l -0.07603,-0.164507 -0.329717,0.01423 c -0.740658,0.03196 -1.410998,-0.353537 -1.7115064,-0.984246 l -0.108997,-0.228765 -0.2786556,0.01332 c -0.795258,0.03802 -1.784854,-0.66294 -1.784854,-1.264269 0,-0.05211 -0.02614,-0.06056 -0.187344,-0.06056 -0.845275,0 -1.564113,-0.722107 -1.565863,-1.572983 L 5.939249,19.777324 5.271447,19.393306 C 4.904156,19.182096 4.60017,19.014119 4.595922,19.020024 c -0.0042,0.0059 -0.04074,0.05854 -0.08109,0.116963 C 4.288597,19.464538 4.252828,19.459882 2.153127,18.829574 0.067935,18.203622 0,18.169975 0,17.763194 0,17.497768 3.546319,7.7142007 3.687445,7.5902908 3.978656,7.3346037 3.93819,7.3231631 5.968867,8.2352993 c 2.013631,0.9044797 1.899795,0.842817 1.991656,1.0788399 0.0045,0.01165 1.142591,0.1122575 2.529015,0.2235725 l 2.520772,0.202391 0.305208,-0.212792 c 0.330039,-0.2301059 1.116234,-0.7281301 1.53562,-0.972757 1.421195,-0.8289783 3.862468,-0.5132308 5.80195,0.7504079 l 0.317315,0.2067421 1.263505,-0.101366 1.263505,-0.1013657 1.372979,-0.8804621 c 1.703711,-1.0925536 1.666248,-1.0745436 1.957247,-0.9409159 0.197303,0.090602 0.08984,-0.1095519 2.598769,4.840313 2.550367,5.031618 2.456539,4.826164 2.323306,5.087323 -0.102098,0.200127 -0.100006,0.198994 -2.023283,1.096209 -2.222944,1.03701 -2.134818,1.020252 -2.540041,0.483023 l -0.200621,-0.265973 -0.77694,0.565849 c -0.526854,0.383708 -0.775475,0.583857 -0.772386,0.621795 0.0025,0.03077 0.03721,0.143587 0.07713,0.250703 0.39221,1.052536 -0.390908,2.158239 -1.53278,2.164171 l -0.282562,0.0015 -0.01936,0.150635 c -0.144498,1.124539 -1.282167,1.850194 -2.324336,1.482564 -0.131857,-0.04651 -0.26165,-0.09209 -0.288429,-0.101271 -0.03496,-0.01199 -0.06481,0.02876 -0.105858,0.144498 -0.333404,0.940115 -1.556013,1.33769 -2.556811,0.83144 l -0.147071,-0.0744 -0.128833,0.09839 c -0.455877,0.348155 -1.343926,0.576679 -1.914097,0.492559 z m 0.875519,-1.212902 c 0.10663,-0.03701 0.20372,-0.07791 0.215755,-0.09089 0.01204,-0.01298 -0.352194,-0.334022 -0.809398,-0.713421 l -0.83128,-0.689816 -0.03882,0.190307 c -0.04599,0.225453 -0.126168,0.392396 -0.340854,0.709691 l -0.158646,0.234472 0.07821,0.05124 c 0.201628,0.132113 0.769764,0.335071 1.074437,0.383828 0.192963,0.03088 0.618369,-0.0087 0.8106,-0.07541 z m -3.566457,-0.220486 c 0.01961,-0.01312 0.04582,-0.0889 0.05825,-0.168415 0.03958,-0.253166 0.197789,-0.418702 0.478214,-0.500345 0.505269,-0.147106 0.528448,-1.196017 0.02626,-1.188327 -0.23792,0.0036 -1.089459,1.069701 -1.124143,1.407335 -0.03037,0.295605 0.343798,0.595345 0.561425,0.449752 z m 5.976337,-0.01277 c 0.310874,-0.07828 0.482015,-0.362821 0.398224,-0.662094 -0.07753,-0.276911 -0.197935,-0.40534 -1.137901,-1.213751 -2.950388,-2.537457 -3.77259,-3.262728 -3.815672,-3.365839 -0.162655,-0.38929 0.09303,-0.795115 0.504056,-0.800044 0.219195,-0.0026 0.276995,0.03778 1.210328,0.846119 4.765684,4.127451 4.817287,4.169138 5.2199,4.216821 0.387722,0.04592 0.750119,-0.396988 0.650036,-0.794452 -0.08129,-0.322831 -0.06107,-0.303634 -2.756753,-2.617607 -2.334366,-2.00382 -2.601113,-2.242505 -2.65041,-2.371588 -0.176653,-0.462561 0.305655,-0.924707 0.753922,-0.722406 0.04945,0.02231 1.251537,1.038972 2.671308,2.259236 3.055642,2.626263 3.223878,2.737477 3.69343,2.44159 0.533983,-0.336488 0.38095,-0.619932 -1.04711,-1.939428 -6.302249,-5.823143 -6.4133,-5.918069 -6.923361,-5.918069 -0.52417,0 -0.632885,0.03872 -0.755704,0.269152 -0.765618,1.436446 -1.837726,2.205691 -3.081205,2.210785 -1.761819,0.0072 -2.32057,-1.613311 -1.082708,-3.140145 0.136841,-0.168786 0.206478,-0.283544 0.206815,-0.340823 0.0014,-0.240049 0.224847,-1.07148 0.360698,-1.342216 l 0.06011,-0.119783 -0.137622,-0.01777 c -0.161797,-0.02089 -3.80762,-0.311334 -3.902905,-0.310927 -0.05777,2.59e-4 -0.07334,0.04763 -0.141357,0.430336 -0.322072,1.812034 -1.106563,4.050743 -2.180338,6.222047 -0.231615,0.468356 -0.421119,0.863677 -0.421119,0.878492 0,0.211295 1.253047,0.723524 1.360458,0.556138 0.625876,-0.975344 2.065337,-1.031316 2.666423,-0.103682 l 0.100882,0.155687 0.194934,-0.06067 c 0.69941,-0.217681 1.601008,0.12218 1.963067,0.739987 0.04534,0.07737 0.0847,0.140474 0.08746,0.140244 0.0028,-2.27e-4 0.09997,-0.03024 0.216016,-0.06669 1.005132,-0.315734 2.304612,0.505858 2.304612,1.457083 0,0.09097 0.0067,0.09475 0.233514,0.13221 0.341152,0.05634 0.61935,0.201327 0.872971,0.454961 l 0.213852,0.213864 0.126971,-0.0725 c 0.354021,-0.202145 0.320119,-0.221718 1.928526,1.113445 1.328563,1.10286 1.423059,1.173468 1.653759,1.235688 0.189729,0.05117 0.203912,0.05142 0.381893,0.0066 z m -7.657721,-1.074055 c 0.123693,-0.08186 0.899762,-1.142135 1.063244,-1.452623 0.223134,-0.423778 -0.10919,-0.941321 -0.604439,-0.941321 -0.299706,0 -0.481345,0.138124 -0.706472,0.537221 -0.071,0.125872 -0.272752,0.432612 -0.448332,0.681646 -0.591588,0.839081 -0.08604,1.692608 0.695999,1.175077 z M 9.621195,21.695766 c 0.05969,-0.02494 0.1327656,-0.07972 0.1623896,-0.121723 0.9565424,-1.356362 1.0128804,-1.54884 0.5419174,-1.851459 -0.3951884,-0.25393 -0.641974,-0.117059 -1.155743,0.640994 l -0.389512,0.574713 v 0.20091 c 0,0.440915 0.432563,0.727199 0.840948,0.556565 z m -1.857716,-1.36373 c 0.456299,-0.319604 0.70959,-1.09375 0.429855,-1.313789 -0.423906,-0.333446 -1.352342,0.705856 -1.043522,1.168131 0.139682,0.209091 0.426059,0.277065 0.613667,0.145658 z m 17.781682,-1.969032 0.807472,-0.58723 -0.203579,-0.330059 c -1.116569,-1.810263 -2.150596,-4.213101 -2.759724,-6.412956 -0.08107,-0.292794 -0.153455,-0.538402 -0.160849,-0.545796 -0.0074,-0.0074 -0.576779,0.03173 -1.2653,0.08695 -1.427993,0.114515 -1.303295,0.126801 -1.729632,-0.170415 -1.83436,-1.2788083 -3.708901,-1.5278367 -5.118103,-0.6799273 -2.030804,1.2219243 -2.296838,1.5299713 -2.456695,2.8446693 -0.04289,0.352726 -0.04901,0.364781 -0.341065,0.672063 -0.701627,0.738198 -0.656319,1.372974 0.09801,1.373098 0.853489,1.29e-4 1.589666,-0.601477 2.184287,-1.785037 0.160112,-0.318695 0.295799,-0.444393 0.571693,-0.529608 0.787155,-0.243128 1.515206,-0.232873 2.048001,0.02885 0.373637,0.183537 2.164073,1.779237 6.276102,5.593481 0.740909,0.687253 1.164865,1.058722 1.195083,1.047126 0.02576,-0.0099 0.410194,-0.282224 0.854303,-0.605201 z M 4.018335,17.724271 C 5.382124,15.239327 6.373328,12.545376 6.736264,10.33733 6.777864,10.084274 6.801964,9.8682257 6.789834,9.8572247 6.730084,9.8030547 4.408347,8.7850796 4.38862,8.8044046 4.36485,8.8276916 1.303966,17.369146 1.314251,17.383491 c 0.0032,0.0045 0.559667,0.175228 1.236556,0.379425 0.676888,0.204198 1.232888,0.372156 1.235553,0.37324 0.0027,0.0011 0.107056,-0.184264 0.231979,-0.411885 z m 25.219407,-0.238273 c 0.66501,-0.310115 1.20911,-0.57479 1.20911,-0.588165 0,-0.01715 -3.288417,-6.533818 -4.038452,-8.0030146 -0.03402,-0.066628 -1.781854,0.9756423 -2.025187,1.2076586 -0.128876,0.122882 0.691132,2.58803 1.366511,4.108071 0.676602,1.522795 2.051247,3.901516 2.226913,3.853507 0.0286,-0.0078 0.596094,-0.267941 1.261105,-0.578057 z M 10.338294,6.6510914 c -0.175171,-0.08085 -1.878692,-2.473332 -2.045715,-2.873076 -0.227455,-0.544375 0.479317,-1.005449 0.90958,-0.593379 0.156175,0.149572 1.859106,2.66798 1.902892,2.814124 0.132267,0.441469 -0.344598,0.84717 -0.766757,0.652331 z m 10.889132,-0.01168 c -0.538882,-0.272234 -0.510403,-0.360057 0.761062,-2.346899 1.235032,-1.929911 1.314466,-2.005773 1.773244,-1.693498 0.479999,0.32672 0.416334,0.463985 -1.745004,3.762326 -0.221786,0.338461 -0.48571,0.431441 -0.789302,0.278071 z m -7.194735,-0.574318 c -0.277209,-0.125856 -0.250781,-0.01924 -0.723057,-2.916788 -0.470802,-2.888493 -0.460099,-2.758909 -0.245585,-2.973423 0.283578,-0.283577 0.775323,-0.194087 0.921889,0.167769 0.07061,0.174328 0.852787,5.078132 0.840316,5.268299 -0.02658,0.405354 -0.41342,0.626735 -0.793563,0.454143 z m 3.738188,0.01785 c -0.139387,-0.06073 -0.300665,-0.257215 -0.32719,-0.398608 -0.04385,-0.233753 0.68623,-5.291863 0.785487,-5.44196 0.298387,-0.451222 1.019206,-0.229746 1.019206,0.313158 0,0.18055 -0.665319,4.984868 -0.714205,5.157325 -0.09336,0.329344 -0.45471,0.504546 -0.763298,0.370085 z"
       id="path164" />
  </g>
</svg>
