<?xml version="1.0" encoding="UTF-8" standalone="no"?>
<svg
   xmlns:dc="http://purl.org/dc/elements/1.1/"
   xmlns:cc="http://creativecommons.org/ns#"
   xmlns:rdf="http://www.w3.org/1999/02/22-rdf-syntax-ns#"
   xmlns:svg="http://www.w3.org/2000/svg"
   xmlns="http://www.w3.org/2000/svg"
   xmlns:sodipodi="http://sodipodi.sourceforge.net/DTD/sodipodi-0.dtd"
   xmlns:inkscape="http://www.inkscape.org/namespaces/inkscape"
   viewBox="500.859 247.204 208.96146 50"
   class="float-start me-4 mt-2"
   width="52.240364"
   version="1.1"
   id="svg4"
   sodipodi:docname="technophilia.svg"
   height="50"
   inkscape:version="1.0.2-2 (e86c870879, 2021-01-15)">
  <metadata
     id="metadata10">
    <rdf:RDF>
      <cc:Work
         rdf:about="">
        <dc:format>image/svg+xml</dc:format>
        <dc:type
           rdf:resource="http://purl.org/dc/dcmitype/StillImage" />
      </cc:Work>
    </rdf:RDF>
  </metadata>
  <defs
     id="defs8" />
  <sodipodi:namedview
     pagecolor="#ffffff"
     bordercolor="#666666"
     borderopacity="1"
     objecttolerance="10"
     gridtolerance="10"
     guidetolerance="10"
     inkscape:pageopacity="0"
     inkscape:pageshadow="2"
     inkscape:window-width="1920"
     inkscape:window-height="1009"
     id="namedview6"
     showgrid="false"
     inkscape:zoom="8.3126013"
     inkscape:cx="24.821917"
     inkscape:cy="18.973459"
     inkscape:window-x="-8"
     inkscape:window-y="-8"
     inkscape:window-maximized="1"
     inkscape:current-layer="svg4"
     inkscape:document-rotation="0" />
  <g
     id="g-3"
     transform="matrix(7.897701,0,0,7.8977561,500.859,172.204)">
    <path
       style="fill:#ffffff;stroke-width:0.264583"
       d="M 22.530211,24.755731 21.380214,24.151586 17.635419,20.438652 C 15.575782,18.396539 13.636713,16.597131 13.326377,16.439968 L 12.762129,16.154217 12.107065,14.493255 C 11.74678,13.579726 11.379334,12.44906 11.290519,11.980665 l -0.161483,-0.851628 0.851628,0.161483 c 0.468395,0.08882 1.600169,0.456706 2.515053,0.817533 l 1.663425,0.65605 0.368877,0.695553 c 0.202882,0.382554 1.990401,2.302897 3.972265,4.267428 l 3.603388,3.571875 0.648164,1.278509 c 1.255425,2.476339 0.240318,3.471632 -2.221625,2.178263 z m 1.811455,-0.810939 c 0,-0.218281 -0.178593,-0.396875 -0.396875,-0.396875 -0.218281,0 -0.396875,0.178594 -0.396875,0.396875 0,0.218282 0.178594,0.396875 0.396875,0.396875 0.218282,0 0.396875,-0.178593 0.396875,-0.396875 z m -1.469371,-1.015259 c 0.692943,-0.506692 0.663992,-0.546036 -3.53593,-4.80514 l -3.814677,-3.868429 -0.631443,0.631443 -0.631443,0.631443 3.916953,3.877375 c 4.282416,4.239146 4.010753,4.034768 4.69654,3.533308 z m -5.674878,-5.070672 -0.898054,-0.926557 0.321395,-0.321395 0.321394,-0.321394 0.954864,0.954863 0.954864,0.954863 -0.181139,0.293088 c -0.283089,0.458048 -0.509906,0.360526 -1.473324,-0.633468 z M 14.28652,14.156252 c 0.71452,-0.760572 0.727003,-0.735022 -0.634957,-1.299626 -1.282726,-0.531757 -1.309398,-0.502389 -0.776292,0.854766 0.507768,1.292652 0.590338,1.31868 1.411249,0.44486 z M 0.437882,18.566146 0,18.082292 V 9.479029 0.875765 L 0.483854,0.437883 0.967708,0 h 12.30743 12.307431 l 0.437882,0.483855 0.437882,0.483854 v 8.603264 8.603263 L 25.974479,18.612118 25.490625,19.05 h -1.194931 -1.19493 L 22.621875,18.520834 22.142986,17.991668 H 23.771493 25.4 V 9.525001 1.058334 H 13.229166 1.058333 v 8.466667 8.466667 h 6.176701 6.176701 l 0.47889,0.529166 L 14.369514,19.05 H 7.622639 0.875764 Z M 2.645833,14.816667 V 12.700001 H 3.704166 4.7625 v 2.116666 2.116667 H 3.704166 2.645833 Z M 6.349999,9.525001 V 2.116667 h 8.995834 8.995833 v 7.408334 7.408333 h -1.678784 -1.678785 l -0.478889,-0.529166 -0.478889,-0.529167 h 1.628507 1.628507 v -6.35 -6.35 h -7.9375 -7.9375 v 6.35 6.35 h 1.943368 1.943368 l 0.478889,0.529167 0.478889,0.529166 H 9.301423 6.349999 Z M 2.236931,10.992236 1.5875,10.342804 V 9.525001 8.707198 L 2.236931,8.057766 2.886363,7.408334 h 0.817803 0.817803 l 0.649432,0.649432 0.649432,0.649432 v 0.817803 0.817803 L 5.171401,10.992236 4.521969,11.641667 H 3.704166 2.886363 Z M 4.487368,10.199169 C 4.898688,9.703558 4.75502,8.998861 4.167187,8.628671 L 3.704166,8.337082 3.241145,8.628671 c -0.587833,0.37019 -0.731501,1.074887 -0.32018,1.570498 0.408678,0.492427 1.157725,0.492427 1.566403,0 z M 3.293043,9.76653 C 3.195273,9.60833 3.247773,9.346392 3.40972,9.184447 L 3.704166,8.890001 3.998613,9.184447 c 0.305309,0.305309 0.114226,0.86972 -0.294447,0.86972 -0.128344,0 -0.313349,-0.129436 -0.411123,-0.287637 z M 2.645833,4.233334 V 2.116667 H 3.704166 4.7625 V 4.233334 6.350001 H 3.704166 2.645833 Z"
       id="path132" />
  </g>
</svg>
